<?xml version="1.0" encoding="UTF-8" standalone="no"?>
<!DOCTYPE svg PUBLIC "-//W3C//DTD SVG 1.1//EN"
 "http://www.w3.org/Graphics/SVG/1.1/DTD/svg11.dtd">
<!-- Generated by graphviz version 2.38.0 (20140413.2041)
 -->
<!-- Title: G Pages: 1 -->
<svg width="544pt" height="286pt"
 viewBox="0.00 0.00 544.47 285.60" xmlns="http://www.w3.org/2000/svg" xmlns:xlink="http://www.w3.org/1999/xlink">
<g id="graph0" class="graph" transform="scale(1 1) rotate(0) translate(28.8 256.8)">
<title>G</title>
<polygon fill="white" stroke="none" points="-28.8,28.8 -28.8,-256.8 515.673,-256.8 515.673,28.8 -28.8,28.8"/>
<g id="clust1" class="cluster"><title>cluster0</title>
<polygon fill="none" stroke="black" points="8,-8 8,-220 478.873,-220 478.873,-8 8,-8"/>
<text text-anchor="middle" x="243.437" y="-204.8" font-family="Helvetica,sans-Serif" font-size="14.00">Device Processing States</text>
</g>
<!-- rec_text -->
<g id="node1" class="node"><title>rec_text</title>
<ellipse fill="none" stroke="black" cx="88.1436" cy="-104" rx="72.2875" ry="18"/>
<text text-anchor="middle" x="88.1436" y="-100.3" font-family="Helvetica,sans-Serif" font-size="14.00">Receiving Text</text>
</g>
<!-- rec_text&#45;&gt;rec_text -->
<g id="edge2" class="edge"><title>rec_text&#45;&gt;rec_text</title>
<path fill="none" stroke="black" d="M69.6684,-121.715C52.7899,-146.114 58.9483,-176 88.1436,-176 113.918,-176 121.738,-152.708 111.604,-130.462"/>
<polygon fill="black" stroke="black" points="114.611,-128.671 106.619,-121.715 108.529,-132.137 114.611,-128.671"/>
<text text-anchor="middle" x="88.1436" y="-179.8" font-family="Helvetica,sans-Serif" font-size="14.00">receiving data</text>
</g>
<!-- post_process -->
<g id="node2" class="node"><title>post_process</title>
<ellipse fill="none" stroke="black" cx="391.58" cy="-104" rx="79.0865" ry="18"/>
<text text-anchor="middle" x="391.58" y="-100.3" font-family="Helvetica,sans-Serif" font-size="14.00">Post Processing</text>
</g>
<!-- rec_text&#45;&gt;post_process -->
<g id="edge1" class="edge"><title>rec_text&#45;&gt;post_process</title>
<path fill="none" stroke="black" d="M116.837,-87.2371C134.118,-77.7751 157.205,-66.8918 179.287,-62 228.755,-51.0415 243.669,-51.7474 293.287,-62 313.202,-66.1149 334.057,-74.5061 351.328,-82.7138"/>
<polygon fill="black" stroke="black" points="350.006,-85.9638 360.525,-87.2264 353.089,-79.6794 350.006,-85.9638"/>
<text text-anchor="end" x="293.287" y="-80.8" font-family="Helvetica,sans-Serif" font-size="14.00">received host app</text>
<text text-anchor="middle" x="236.287" y="-65.8" font-family="Helvetica,sans-Serif" font-size="14.00">terminating string</text>
</g>
<!-- post_process&#45;&gt;rec_text -->
<g id="edge3" class="edge"><title>post_process&#45;&gt;rec_text</title>
<path fill="none" stroke="black" d="M312.248,-104C268.741,-104 214.68,-104 170.671,-104"/>
<polygon fill="black" stroke="black" points="170.58,-100.5 160.58,-104 170.58,-107.5 170.58,-100.5"/>
<text text-anchor="end" x="290.287" y="-122.8" font-family="Helvetica,sans-Serif" font-size="14.00">send device</text>
<text text-anchor="middle" x="236.287" y="-107.8" font-family="Helvetica,sans-Serif" font-size="14.00">terminating string</text>
</g>
<!-- post_process&#45;&gt;post_process -->
<g id="edge4" class="edge"><title>post_process&#45;&gt;post_process</title>
<path fill="none" stroke="black" d="M372.356,-121.715C354.793,-146.114 361.201,-176 391.58,-176 418.399,-176 426.536,-152.708 415.991,-130.462"/>
<polygon fill="black" stroke="black" points="418.915,-128.532 410.804,-121.715 412.894,-132.102 418.915,-128.532"/>
<text text-anchor="middle" x="391.58" y="-179.8" font-family="Helvetica,sans-Serif" font-size="14.00">sending data</text>
</g>
</g>
</svg>
