<?xml version="1.0" encoding="UTF-8" standalone="no"?>
<!DOCTYPE svg PUBLIC "-//W3C//DTD SVG 1.1//EN"
 "http://www.w3.org/Graphics/SVG/1.1/DTD/svg11.dtd">
<!-- Generated by graphviz version 2.38.0 (20140413.2041)
 -->
<!-- Title: G Pages: 1 -->
<svg width="1185pt" height="238pt"
 viewBox="0.00 0.00 1185.22 237.60" xmlns="http://www.w3.org/2000/svg" xmlns:xlink="http://www.w3.org/1999/xlink">
<g id="graph0" class="graph" transform="scale(1 1) rotate(0) translate(28.8 208.8)">
<title>G</title>
<polygon fill="white" stroke="none" points="-28.8,28.8 -28.8,-208.8 1156.42,-208.8 1156.42,28.8 -28.8,28.8"/>
<g id="clust1" class="cluster"><title>cluster0</title>
<polygon fill="none" stroke="black" points="8,-8 8,-172 1119.62,-172 1119.62,-8 8,-8"/>
<text text-anchor="middle" x="563.809" y="-156.8" font-family="Helvetica,sans-Serif" font-size="14.00">Host App Processing States</text>
</g>
<!-- Idle -->
<g id="node1" class="node"><title>Idle</title>
<ellipse fill="none" stroke="black" cx="43" cy="-109" rx="27" ry="18"/>
<text text-anchor="middle" x="43" y="-105.3" font-family="Helvetica,sans-Serif" font-size="14.00">Idle</text>
</g>
<!-- pre_processing -->
<g id="node2" class="node"><title>pre_processing</title>
<ellipse fill="none" stroke="black" cx="267.61" cy="-51" rx="80.7205" ry="26.7407"/>
<text text-anchor="end" x="316.61" y="-54.8" font-family="Helvetica,sans-Serif" font-size="14.00">Pre&#45;processing</text>
<text text-anchor="middle" x="267.61" y="-39.8" font-family="Helvetica,sans-Serif" font-size="14.00">(Optional)</text>
</g>
<!-- Idle&#45;&gt;pre_processing -->
<g id="edge1" class="edge"><title>Idle&#45;&gt;pre_processing</title>
<path fill="none" stroke="black" d="M68.6737,-102.571C98.6048,-94.773 150.409,-81.2757 193.512,-70.0453"/>
<polygon fill="black" stroke="black" points="194.618,-73.3742 203.412,-67.4659 192.853,-66.6004 194.618,-73.3742"/>
<text text-anchor="middle" x="128.5" y="-100.8" font-family="Helvetica,sans-Serif" font-size="14.00">button press</text>
</g>
<!-- sending_text -->
<g id="node3" class="node"><title>sending_text</title>
<ellipse fill="none" stroke="black" cx="448.965" cy="-34" rx="61.99" ry="18"/>
<text text-anchor="middle" x="448.965" y="-30.3" font-family="Helvetica,sans-Serif" font-size="14.00">Sending text</text>
</g>
<!-- pre_processing&#45;&gt;sending_text -->
<g id="edge2" class="edge"><title>pre_processing&#45;&gt;sending_text</title>
<path fill="none" stroke="black" d="M345.453,-43.7165C356.882,-42.6332 368.595,-41.5231 379.828,-40.4583"/>
<polygon fill="black" stroke="black" points="380.362,-43.9234 389.988,-39.4953 379.702,-36.9547 380.362,-43.9234"/>
</g>
<!-- sending_text&#45;&gt;sending_text -->
<g id="edge3" class="edge"><title>sending_text&#45;&gt;sending_text</title>
<path fill="none" stroke="black" d="M438.844,-52.0781C429.888,-76.4094 433.262,-106 448.965,-106 462.644,-106 466.967,-83.5465 461.935,-61.675"/>
<polygon fill="black" stroke="black" points="465.287,-60.6687 459.086,-52.0781 458.576,-62.6607 465.287,-60.6687"/>
<text text-anchor="middle" x="448.965" y="-109.8" font-family="Helvetica,sans-Serif" font-size="14.00">send data</text>
</g>
<!-- receiving_text -->
<g id="node4" class="node"><title>receiving_text</title>
<ellipse fill="none" stroke="black" cx="725.603" cy="-34" rx="68.7879" ry="18"/>
<text text-anchor="middle" x="725.603" y="-30.3" font-family="Helvetica,sans-Serif" font-size="14.00">Receiving text</text>
</g>
<!-- sending_text&#45;&gt;receiving_text -->
<g id="edge4" class="edge"><title>sending_text&#45;&gt;receiving_text</title>
<path fill="none" stroke="black" d="M510.916,-34C550.856,-34 603.434,-34 646.441,-34"/>
<polygon fill="black" stroke="black" points="646.588,-37.5001 656.588,-34 646.588,-30.5001 646.588,-37.5001"/>
<text text-anchor="end" x="637.709" y="-52.8" font-family="Helvetica,sans-Serif" font-size="14.00">send host app</text>
<text text-anchor="middle" x="583.709" y="-37.8" font-family="Helvetica,sans-Serif" font-size="14.00">terminating string</text>
</g>
<!-- receiving_text&#45;&gt;receiving_text -->
<g id="edge5" class="edge"><title>receiving_text&#45;&gt;receiving_text</title>
<path fill="none" stroke="black" d="M708.127,-51.7154C692.161,-76.1143 697.986,-106 725.603,-106 749.876,-106 757.316,-82.914 747.921,-60.7576"/>
<polygon fill="black" stroke="black" points="750.886,-58.879 743.08,-51.7154 744.715,-62.1833 750.886,-58.879"/>
<text text-anchor="middle" x="725.603" y="-109.8" font-family="Helvetica,sans-Serif" font-size="14.00">receiving data</text>
</g>
<!-- post_processing -->
<g id="node5" class="node"><title>post_processing</title>
<ellipse fill="none" stroke="black" cx="1026.06" cy="-100" rx="85.6199" ry="26.7407"/>
<text text-anchor="end" x="1078.56" y="-103.8" font-family="Helvetica,sans-Serif" font-size="14.00">Post&#45;processing</text>
<text text-anchor="middle" x="1026.06" y="-88.8" font-family="Helvetica,sans-Serif" font-size="14.00">(Optional)</text>
</g>
<!-- receiving_text&#45;&gt;post_processing -->
<g id="edge6" class="edge"><title>receiving_text&#45;&gt;post_processing</title>
<path fill="none" stroke="black" d="M778.931,-45.5718C825.027,-55.7655 892.856,-70.7651 945.641,-82.4379"/>
<polygon fill="black" stroke="black" points="945.13,-85.9094 955.65,-84.6512 946.641,-79.0745 945.13,-85.9094"/>
<text text-anchor="end" x="921.497" y="-95.8" font-family="Helvetica,sans-Serif" font-size="14.00">received device</text>
<text text-anchor="middle" x="867.497" y="-80.8" font-family="Helvetica,sans-Serif" font-size="14.00">terminating string</text>
</g>
<!-- post_processing&#45;&gt;Idle -->
<g id="edge7" class="edge"><title>post_processing&#45;&gt;Idle</title>
<path fill="none" stroke="black" d="M954.558,-114.838C894.305,-126.221 805.151,-140 726.603,-140 266.61,-140 266.61,-140 266.61,-140 187.391,-140 166.43,-141.741 89,-125 84.806,-124.093 80.4687,-122.899 76.2175,-121.571"/>
<polygon fill="black" stroke="black" points="77.1563,-118.194 66.562,-118.301 74.9109,-124.824 77.1563,-118.194"/>
</g>
</g>
</svg>
