<?xml version="1.0" encoding="UTF-8" standalone="no"?>
<svg
   viewBox="0 0 16 16"
   enable-background="new 0 0 16 16"
   version="1.1"
   id="svg8"
   sodipodi:docname="connect-plugged.svg"
   inkscape:version="1.1 (c68e22c387, 2021-05-23)"
   xmlns:inkscape="http://www.inkscape.org/namespaces/inkscape"
   xmlns:sodipodi="http://sodipodi.sourceforge.net/DTD/sodipodi-0.dtd"
   xmlns="http://www.w3.org/2000/svg"
   xmlns:svg="http://www.w3.org/2000/svg">
  <defs
     id="defs12" />
  <sodipodi:namedview
     id="namedview10"
     pagecolor="#ffffff"
     bordercolor="#666666"
     borderopacity="1.0"
     inkscape:pageshadow="2"
     inkscape:pageopacity="0.0"
     inkscape:pagecheckerboard="0"
     showgrid="false"
     inkscape:zoom="38.875"
     inkscape:cx="7.9871383"
     inkscape:cy="8"
     inkscape:window-width="1368"
     inkscape:window-height="850"
     inkscape:window-x="-6"
     inkscape:window-y="-6"
     inkscape:window-maximized="1"
     inkscape:current-layer="svg8" />
  <style
     type="text/css"
     id="style2">.icon-canvas-transparent{opacity:0;fill:#F6F6F6;} .icon-vs-out{fill:#F6F6F6;} .icon-vs-bg{fill:#424242;} .icon-vs-fg{fill:#F0EFF1;}</style>
  <path
     class="icon-canvas-transparent"
     d="M16 16h-16v-16h16v16z"
     id="canvas" />
  <path
     class="icon-vs-bg"
     d="M14.718 1.99l-.707-.707-2.16 2.159c-1.155-.798-2.837-.698-3.851.315l-2.828 2.829c-.567.566-.879 1.32-.879 2.121 0 .631.2 1.229.56 1.733l-2.156 2.156.707.707 2.156-2.157c.504.359 1.102.56 1.733.56.801 0 1.555-.313 2.121-.879l2.828-2.827c1.049-1.049 1.15-2.683.318-3.853l2.158-2.157zm-6.011 8.131c-.756.756-2.072.756-2.828 0-.378-.378-.586-.88-.586-1.414s.208-1.036.586-1.414l1.061-1.061 2.828 2.828-1.061 1.061zm2.828-2.828l-1.061 1.061-2.828-2.829 1.061-1.061c.756-.755 2.072-.755 2.828 0 .78.78.78 2.049 0 2.829z"
     id="iconBg" />
</svg>
